<svg xmlns="http://www.w3.org/2000/svg" version="1.1" xmlns:xlink="http://www.w3.org/1999/xlink" xmlns:svgjs="http://svgjs.com/svgjs" width="512" height="512" x="0" y="0" viewBox="0 0 512 512" style="enable-background:new 0 0 512 512" xml:space="preserve" class=""><g><path d="M480 376v-88h-16v88h-48v-32h-16v32h-48V96h112v176h16V88a8 8 0 0 0-8-8h-8V56a8 8 0 0 0-8-8h-40V16h-16v32h-40a8 8 0 0 0-8 8v24h-8a8 8 0 0 0-8 8v48h-40a7.999 7.999 0 0 0-5.657 2.343l-64 64A7.999 7.999 0 0 0 224 208v46.606l-42.794-36.68a8.002 8.002 0 0 0-10.412 0l-56 48A8 8 0 0 0 112 272v33.87l-27.884-16.73a7.999 7.999 0 0 0-8.232 0l-40 24A8 8 0 0 0 32 320v56H16v16h42.228a240.048 240.048 0 0 0 395.544 0H496v-16zM368 64h80v16h-80zm-23.72 328a282.945 282.945 0 0 1-24.436 40H192.155a282.945 282.945 0 0 1-24.436-40zM240 211.314 299.313 152H336v224h-40v-32h-16v32h-40zM128 275.68l48-41.143 48 41.143V376h-40v-32h-16v32h-40zm-80 48.85 32-19.2 32 19.2V376H88v-32H72v32H48zM77.99 392h71.94a300.507 300.507 0 0 0 22.682 40h-55.246a224.526 224.526 0 0 1-39.376-40zm106.195 56a284.742 284.742 0 0 0 23.59 26.78 223.275 223.275 0 0 1-67.26-26.78zm52.052 31.134A260.788 260.788 0 0 1 204.804 448h102.392a260.788 260.788 0 0 1-31.433 31.134q-9.802.862-19.763.866-9.953 0-19.764-.866zM327.815 448h43.67a223.275 223.275 0 0 1-67.26 26.78 284.742 284.742 0 0 0 23.59-26.78zm66.82-16h-55.247a300.507 300.507 0 0 0 22.682-40h71.94a224.526 224.526 0 0 1-39.376 40z" fill="#000080" data-original="#000000" opacity="1" class=""></path><path d="M144 288h16v40h-16zM192 288h16v40h-16zM256 288h16v40h-16zM304 288h16v40h-16zM256 232h16v40h-16zM304 232h16v40h-16zM368 232h16v40h-16zM400 232h16v40h-16zM368 176h16v40h-16zM400 176h16v40h-16zM368 120h16v40h-16zM400 120h16v40h-16zM432 232h16v40h-16zM368 288h16v40h-16zM400 288h16v40h-16zM432 288h16v40h-16zM432 176h16v40h-16zM432 120h16v40h-16zM304 176h16v40h-16zM20.811 271.337a8.001 8.001 0 0 0 8.647-1.488L144.3 162.664l42.579 35.482a8 8 0 0 0 11-.72l91.367-98.981 18.317 12.21a8 8 0 0 0 12.398-5.86l8-80a8 8 0 0 0-10.26-8.458l-80 24a8 8 0 0 0-2.138 14.32l16.302 10.868-60.66 67.4-42.083-35.07a8 8 0 0 0-10.58.297l-42.857 40 10.917 11.697 37.698-35.185 42.579 35.482a8.001 8.001 0 0 0 11.067-.794l72-80a8 8 0 0 0-1.508-12.008l-9.851-6.568 52.264-15.679-5.487 54.864-12.926-8.617a7.999 7.999 0 0 0-10.316 1.23l-90.842 98.412-42.158-35.132a8 8 0 0 0-10.58.297L32 245.59v-26.113l61.458-57.362-10.917-11.697-64 59.733A8 8 0 0 0 16 216v48a8.001 8.001 0 0 0 4.811 7.337z" fill="#000080" data-original="#000000" opacity="1" class=""></path></g></svg>