<svg height="512" viewBox="0 0 60 57" width="512" xmlns="http://www.w3.org/2000/svg"><g id="Page-1" fill="none" fill-rule="evenodd"><g id="018---Book-Shopping" fill-rule="nonzero" transform="translate(0 -1)"><path id="Shape" d="m38 2c.082 0 .963-.983 0-.985-1.991-.004-6.681-.015-16-.015-1.1032019.0032948-1.9967052.89679813-2 2v16h12.42z" fill="#894b9d"/><path id="Shape" d="m35.2 10h-6.2c-.5522847 0-1-.44771525-1-1v-2c0-.55228475.4477153-1 1-1h6c.5522847 0 1 .44771525 1 1v.42z" fill="#b49aca"/><path id="Shape" d="m31 19 5.13-16.59c.1565819-.5087218.509491-.93404183.9805915-1.18179188s1.0215257-.29749035 1.5294085-.13820812l16.24 5.03c.2526271.07858775.4633948.2548342.5854542.48956383.1220594.23472962.1452963.50849204.0645458.76043617l-3.598 11.63z" fill="#ff5364"/><rect id="Rectangle-path" fill="#f0c419" height="4" rx="1" transform="matrix(.955 .296 -.296 .955 5.243 -13.167)" width="8" x="42.121" y="8.737"/><path id="Shape" d="m40.55 1.682-5.37 17.318h-4.18l5.13-16.59c.1565819-.5087218.509491-.93404183.9805915-1.18179188s1.0215257-.29749035 1.5294085-.13820812z" fill="#df4d60"/><path id="Shape" d="m24 1v18h-4v-16c.0032948-1.10320187.8967981-1.9967052 2-2z" fill="#3d324c"/><path id="Shape" d="m13.02 18h43.98c1.1032019.0032948 1.9967052.8967981 2 2v19c0 2.7614237-2.2385763 5-5 5h-36.93z" fill="#3b97d3"/><path id="Shape" d="m59 51h-35.861c-3.4561135.0149978-6.4004714-2.5066701-6.917-5.924l-5.816-37.383c-.1465164-.97650942-.98757015-1.69747346-1.975-1.693h-7.431c-.55228475 0-1-.44771525-1-1s.44771525-1 1-1h7.431c1.9751433-.00865243 3.6576557 1.43289287 3.952 3.386l5.817 37.383c.3690465 2.4401335 2.4711368 4.2408915 4.939 4.231h35.861c.5522847 0 1 .4477153 1 1s-.4477153 1-1 1z" fill="#547580"/><circle id="Oval" cx="50" cy="54" fill="#3b97d3" r="4"/><circle id="Oval" cx="28" cy="54" fill="#3b97d3" r="4"/><g fill="#fff"><path id="Shape" d="m54 27h-35c-.5522847 0-1-.4477153-1-1s.4477153-1 1-1h35c.5522847 0 1 .4477153 1 1s-.4477153 1-1 1z"/><path id="Shape" d="m54 37h-33c-.5522847 0-1-.4477153-1-1s.4477153-1 1-1h33c.5522847 0 1 .4477153 1 1s-.4477153 1-1 1z"/><path id="Shape" d="m47 41c-.5522847 0-1-.4477153-1-1v-18c0-.5522847.4477153-1 1-1s1 .4477153 1 1v18c0 .5522847-.4477153 1-1 1z"/><path id="Shape" d="m37 41c-.5522847 0-1-.4477153-1-1v-18c0-.5522847.4477153-1 1-1s1 .4477153 1 1v18c0 .5522847-.4477153 1-1 1z"/><path id="Shape" d="m27 41c-.5522847 0-1-.4477153-1-1v-18c0-.5522847.4477153-1 1-1s1 .4477153 1 1v18c0 .5522847-.4477153 1-1 1z"/></g></g></g></svg>