<svg xmlns="http://www.w3.org/2000/svg" version="1.1" xmlns:xlink="http://www.w3.org/1999/xlink" xmlns:svgjs="http://svgjs.com/svgjs" width="512" height="512" x="0" y="0" viewBox="0 0 66 66" style="enable-background:new 0 0 512 512" xml:space="preserve" class=""><g><path d="M51.7 26.2c-.3 0-.6-.1-.8-.4-.9-1.1-8.6-11-8.6-15.7 0-5 4.3-9.1 9.5-9.1 5.1 0 9.3 4.1 9.3 9.1 0 4.7-7.7 14.6-8.6 15.7-.2.3-.5.4-.8.4zM51.8 3c-4.1 0-7.5 3.2-7.5 7.1 0 3.1 4.8 10 7.4 13.5 2.6-3.5 7.4-10.4 7.4-13.5 0-3.9-3.3-7.1-7.3-7.1z" fill="#000080" data-original="#000000" opacity="1"></path><path d="M34 65c-1.9 0-3.5-.1-4.9-.4-.5-.1-.9-.6-.8-1.2.1-.5.6-.9 1.2-.8 1.3.3 2.8.4 4.5.4 14.9 0 27.1-12.1 27.1-27 0-5.9-2-11.8-5.6-16.5-.3-.4-.3-1.1.2-1.4.4-.3 1.1-.3 1.4.2 3.9 5.1 6 11.3 6 17.7C63.1 52 50 65 34 65zM7.5 46.3c-.4 0-.8-.3-.9-.7-1.1-3.2-1.7-6.4-1.7-9.6 0-3.9.7-7.6 2.3-11.3 2.2-5 5.6-9.2 9.9-12.3C22 8.9 27.9 7 34 7c1.1 0 2.3 0 3.5.2 2 .2 4.2.7 6.4 1.4.5.2.8.8.6 1.3s-.8.8-1.3.6c-2-.7-4-1.2-6-1.3C36.1 9 35.1 9 34 9c-5.7 0-11.1 1.7-15.7 5-4 2.9-7.2 6.9-9.3 11.5C7.6 29 6.9 32.4 6.9 36c0 3 .5 6 1.5 9 .2.5-.1 1.1-.6 1.3h-.3z" fill="#000080" data-original="#000000" opacity="1"></path><path d="M52.4 52.9c-1.9 0-3.7-.5-5.2-1.6-.2-.2-.4-.3-.6-.5-.8-.6-1.5-1.2-2.2-1.1h-.7c-.2.1-.4.3-.7.6-1.2.8-2.7 1.1-4.1.7-1.5-.3-2.7-1.2-3.4-2.3-.5-.7-.5-1.5-.3-2.4.6-2 3-3.6 4.5-4.4 0-.4-.2-1.4-.3-1.9-.2-1.1-.5-2.1-.4-2.8.2-.8.7-1.5 1.4-1.9.8-.5 2-.7 3-.4 1.2.3 2 1.1 2.8 1.7.2.2.4.4.6.5.9.7 1.8 1.4 2.7 1.3.4 0 .8-.2 1.3-.3.8-.3 1.7-.6 2.7-.3 1.2.3 1.9 1.2 2.6 2 .3.4.6.8.9 1s.8 0 1.1-.1c1.4-.6 2.8-2.3 3-3.3.1-.5.6-.9 1.1-.8s.9.6.8 1.1c-.3 1.8-2.2 4-4.1 4.8-1.2.5-2.3.5-3.1-.1-.5-.4-.9-.9-1.3-1.4-.5-.6-.9-1.2-1.5-1.3-.5-.1-1 .1-1.6.3-.5.2-1.1.4-1.8.4-1.8.1-3.2-1-4.1-1.7-.2-.2-.5-.4-.7-.6-.7-.6-1.3-1.1-2-1.3-.5-.1-1.1 0-1.5.2-.2.1-.4.3-.4.6s.2 1.3.3 2c.4 1.7.8 3.4-.4 4-1.6.8-3.4 2.2-3.8 3.4-.1.4 0 .6 0 .8.4.7 1.2 1.2 2.1 1.4s1.9.1 2.6-.4c.4-.3.5-.4.6-.5.4-.4.8-.5 1.3-.5h.6c1.4-.1 2.6.8 3.6 1.6.2.1.4.3.6.4 1.6 1.1 3.7 1.5 5.7 1 2.1-.6 3.4-1.2 4.2-2.8.2-.5.8-.7 1.3-.4.5.2.7.8.4 1.3-1.2 2.5-3.4 3.2-5.5 3.8-.6.1-1.4.2-2.1.2zM51.9 30.5c-3 0-5.5-2.5-5.5-5.5 0-1.8.8-3.4 2.2-4.4.4-.3 1.1-.2 1.4.2s.2 1.1-.2 1.4c-.9.6-1.4 1.7-1.4 2.8 0 2 1.5 3.5 3.5 3.5s3.5-1.5 3.5-3.5c0-1.1-.5-2.1-1.4-2.8-.4-.3-.5-1-.2-1.4s.9-.5 1.4-.2c1.4 1 2.2 2.6 2.2 4.4 0 3-2.5 5.5-5.5 5.5zM51.8 14.7c-2.4 0-4.3-1.9-4.3-4.3s1.9-4.3 4.3-4.3 4.3 1.9 4.3 4.3-1.9 4.3-4.3 4.3zm0-6.6c-1.3 0-2.3 1-2.3 2.3s1 2.3 2.3 2.3 2.3-1 2.3-2.3-1-2.3-2.3-2.3zM28.5 64.7H6.9c-2.2 0-4-1.8-4-4V48.3c0-2.2 1.8-4 4-4h21.6c2.2 0 4 1.8 4 4v12.4c0 2.2-1.8 4-4 4zM6.9 46.3c-1.1 0-2 .9-2 2v12.4c0 1.1.9 2 2 2h21.6c1.1 0 2-.9 2-2V48.3c0-1.1-.9-2-2-2z" fill="#000080" data-original="#000000" opacity="1"></path><path d="M22.9 46.3H12.5c-.6 0-1-.4-1-1v-2.6c0-2 1.6-3.6 3.6-3.6h5.2c2 0 3.6 1.6 3.6 3.6v2.6c0 .6-.4 1-1 1zm-9.4-2h8.4v-1.6c0-.9-.7-1.6-1.6-1.6h-5.2c-.9 0-1.6.7-1.6 1.6zM17.7 55.5c-5.6 0-10.8-1.3-14.2-3.6-.5-.3-.6-.9-.3-1.3.3-.5.9-.6 1.4-.3 3.1 2.1 7.9 3.2 13.2 3.2s10.1-1.2 13.3-3.2c.5-.3 1.1-.2 1.4.3s.2 1.1-.3 1.4c-3.6 2.2-8.8 3.5-14.5 3.5z" fill="#000080" data-original="#000000" opacity="1"></path><path d="M17.7 58.3c-.6 0-1-.4-1-1v-6.2c0-.6.4-1 1-1s1 .4 1 1v6.2c0 .6-.4 1-1 1zM26.7 35.5c-.7 0-1.4-.2-2-.5-1.5-.9-2.1-2.4-2.7-3.9-.4-1.1-.9-2.2-1.6-2.8-.8-.7-2.2-.9-3.6-1h-.9c-1.2-.1-2.6-.1-3.9-.8-1.7-.9-3-4.4-2.4-6.3.2-.5.8-.8 1.3-.6s.8.8.6 1.3c-.3 1 .6 3.4 1.4 3.9.8.4 1.9.5 3 .5h.9c1.7.1 3.5.4 4.8 1.4 1.1 1 1.7 2.4 2.2 3.6s.9 2.4 1.8 2.9c1.3.7 3.1-.1 4-1.4.8-1.2 1.1-3 .8-5.3 0-.4.2-.8.5-1 .4-.2.8-.2 1.1.1 1.4 1.1 3.8.8 5-.6.5-.7.8-1.6.6-2.6s-.7-1.8-1.4-2.2c-.9-.7-2.1-.9-3.3-1.1-.4-.1-.9-.2-1.3-.3-3.2-.8-4.4-2.3-4.7-3.5-.5-1.5 0-3.2 1.3-4.7.2-.2.3-.4.5-.6.9-1.1 2.1-2.4 3.3-3 .5-.2 1.1 0 1.3.4.2.5 0 1.1-.4 1.3-.8.4-1.9 1.6-2.6 2.5-.2.2-.4.5-.6.6-.6.7-1.2 1.8-.9 2.7.4 1.2 2 1.8 3.3 2.1.4.1.8.2 1.2.2 1.4.3 2.8.5 4 1.4 1.1.7 2 2 2.2 3.6.3 1.5-.1 3-1 4.2-.9 1.1-2.2 1.9-3.7 2-.8.1-1.6 0-2.4-.2 0 1.9-.4 3.5-1.2 4.8-.9 1.8-2.7 2.9-4.5 2.9z" fill="#000080" data-original="#000000" opacity="1"></path></g></svg>